<?xml version="1.0" standalone="no"?>
<!DOCTYPE svg PUBLIC "-//W3C//DTD SVG 20010904//EN"
 "http://www.w3.org/TR/2001/REC-SVG-20010904/DTD/svg10.dtd">
<svg version="1.0" xmlns="http://www.w3.org/2000/svg"
 width="662.000000pt" height="1280.000000pt" viewBox="0 0 662.000000 1280.000000"
 preserveAspectRatio="xMidYMid meet">
<metadata>
Created by potrace 1.15, written by Peter Selinger 2001-2017
</metadata>
<g transform="translate(0.000000,1280.000000) scale(0.100000,-0.100000)"
fill="#000000" stroke="none">
<path d="M4900 12585 c0 -3 7 -20 16 -38 13 -24 17 -63 18 -162 2 -136 13
-177 54 -207 11 -7 25 -30 31 -51 7 -21 15 -36 18 -33 3 3 0 19 -6 37 -13 39
-14 72 -2 64 14 -8 25 -91 14 -109 -7 -13 -16 -7 -46 34 -34 46 -67 65 -67 40
0 -6 -12 -29 -27 -51 l-27 -41 47 -42 c26 -22 52 -56 58 -73 14 -42 27 -43 21
-2 -5 33 25 112 39 103 15 -9 10 -103 -6 -134 -9 -17 -23 -30 -32 -30 -30 0
-78 -39 -122 -100 l-44 -60 -51 0 c-30 1 -102 -13 -175 -33 -100 -28 -129 -41
-155 -66 l-31 -32 0 -125 0 -125 -105 -96 c-58 -52 -124 -109 -147 -126 -44
-31 -50 -41 -33 -52 5 -3 34 16 62 42 112 103 217 193 223 193 13 0 -5 -172
-22 -209 -8 -20 -39 -155 -69 -301 -29 -146 -79 -364 -111 -485 l-57 -220 -2
-215 c-2 -176 -6 -234 -24 -318 -43 -207 -88 -342 -166 -502 -42 -85 -94 -210
-116 -276 -35 -109 -42 -123 -68 -134 -22 -9 -41 -9 -80 -1 -72 16 -105 35
-132 78 -20 33 -23 50 -22 123 1 126 9 156 43 168 22 8 30 6 39 -7 9 -12 11
-13 9 -1 -1 8 8 19 21 25 12 5 22 15 22 22 0 17 37 17 43 1 4 -10 6 -10 6 0 1
7 15 12 36 12 19 0 35 5 35 10 0 6 8 10 19 10 10 0 24 6 30 14 10 12 8 13 -8
9 -24 -6 -26 4 -6 31 18 23 10 39 -16 31 -29 -9 -24 20 6 33 14 6 25 17 25 24
0 7 11 0 24 -17 21 -26 26 -28 40 -15 16 12 16 14 1 23 -9 5 -19 6 -22 3 -4
-3 -1 -6 5 -6 7 0 12 -5 12 -11 0 -8 -4 -8 -14 1 -8 6 -12 18 -10 25 9 24 -6
37 -22 20 -24 -23 -37 -18 -30 12 4 14 19 35 33 47 45 35 69 60 83 85 11 22
10 27 -11 44 -21 17 -22 20 -6 28 9 6 17 15 17 21 0 9 -3 9 -11 1 -6 -6 -18
-9 -25 -6 -11 4 -8 11 11 29 14 13 31 21 39 18 17 -7 26 34 14 67 -7 19 -5 27
17 42 14 10 22 24 19 30 -3 7 2 3 10 -7 12 -15 16 -16 16 -5 0 21 -20 39 -35
32 -13 -4 -14 8 -2 37 3 8 8 29 10 45 8 61 20 97 33 102 16 6 19 39 4 48 -11
7 -9 37 5 68 5 12 1 24 -10 37 -11 12 -13 20 -7 20 7 0 12 -5 12 -11 0 -5 5
-7 10 -4 6 4 8 16 4 28 -4 12 -10 40 -13 62 -6 39 -7 40 -43 37 -31 -3 -37 -1
-32 12 4 9 18 16 34 16 16 0 32 5 35 11 4 6 1 9 -6 8 -8 -2 -24 3 -36 11 -20
13 -21 15 -6 52 8 21 13 44 10 52 -4 10 3 16 21 19 21 3 20 4 -5 3 -29 -2 -31
0 -28 26 4 33 -10 38 -18 6 -6 -21 -7 -21 -25 -5 -10 9 -23 17 -29 17 -6 0
-14 7 -17 16 -10 25 -7 29 7 9 8 -10 19 -15 25 -11 15 9 16 46 1 46 -6 0 -8 7
-5 17 4 10 4 14 0 10 -4 -4 -13 1 -19 10 -11 14 -10 20 4 30 9 7 11 13 5 13
-6 0 -19 -9 -29 -20 -10 -11 -28 -20 -39 -20 -15 0 -17 3 -8 9 7 4 15 20 16
34 3 22 1 25 -15 17 -23 -13 -30 -13 -27 1 6 24 -22 19 -32 -6 -6 -15 -15 -23
-21 -20 -6 4 -8 9 -5 12 12 12 -16 44 -36 41 -12 -2 -26 6 -35 20 -10 13 -11
22 -5 22 6 0 9 7 6 15 -5 11 -11 12 -26 4 -37 -20 -56 -19 -51 2 4 15 0 19
-20 19 -23 0 -39 20 -42 52 -2 31 -45 9 -45 -23 0 -20 -4 -22 -35 -10 -12 5
-25 3 -33 -6 -8 -8 -23 -11 -36 -8 -21 6 -21 6 -2 -9 19 -16 19 -16 -2 -16
-12 0 -22 5 -22 10 0 6 -7 10 -15 10 -19 0 -16 47 4 59 10 6 9 10 -4 14 -9 4
-14 3 -11 -2 6 -8 -52 -41 -72 -41 -5 0 -12 -10 -16 -22 -6 -25 -52 -52 -62
-37 -3 5 2 9 10 9 9 0 16 7 16 16 0 10 -6 14 -14 11 -7 -3 -18 -1 -23 4 -6 6
-15 4 -24 -7 -12 -16 -12 -17 2 -12 12 5 15 1 11 -18 -4 -20 -10 -24 -31 -22
-15 2 -25 8 -23 16 1 8 -2 11 -8 7 -5 -3 -10 -1 -10 4 0 6 -5 11 -12 11 -9 0
-9 -3 0 -12 15 -15 16 -32 2 -23 -5 3 -10 0 -10 -8 0 -20 -40 -29 -59 -14 -10
8 -13 8 -8 1 8 -13 -33 -44 -60 -45 -11 0 -13 -3 -5 -6 12 -5 18 -53 6 -53
-12 0 -30 26 -27 37 3 9 -2 9 -21 0 -14 -7 -26 -16 -26 -20 0 -4 -10 -12 -22
-17 -16 -6 -18 -9 -7 -9 9 -1 20 -8 23 -17 3 -8 2 -12 -3 -9 -5 3 -13 0 -17
-6 -3 -6 -19 -9 -35 -5 -24 4 -30 1 -43 -24 -8 -17 -10 -32 -6 -35 13 -8 0
-35 -17 -35 -8 0 -12 -4 -9 -8 9 -15 -25 -54 -41 -48 -19 8 -73 -30 -73 -50 0
-12 6 -11 29 5 32 23 55 27 49 9 -6 -16 -57 -41 -88 -42 -18 -1 -26 -46 -10
-56 8 -5 0 -18 -25 -41 -21 -19 -48 -44 -60 -56 -24 -24 -41 -31 -29 -11 4 6
3 8 -4 4 -5 -3 -13 0 -15 6 -4 9 -6 9 -6 1 -1 -16 29 -44 40 -38 13 8 11 2 -6
-31 -8 -16 -12 -37 -9 -46 3 -11 0 -18 -8 -18 -8 0 -19 -14 -25 -31 -8 -20
-16 -28 -24 -23 -8 4 -9 3 -5 -4 4 -7 16 -12 27 -12 10 0 20 -4 20 -10 5 -40
3 -45 -20 -42 -20 3 -23 0 -18 -18 4 -17 0 -24 -24 -32 -32 -11 -37 -32 -14
-65 13 -18 13 -22 0 -33 -17 -14 -38 -3 -31 16 3 8 1 14 -4 14 -14 0 -12 -24
2 -38 7 -7 22 -12 35 -12 27 0 28 -6 8 -40 -17 -29 -20 -19 -4 12 8 16 8 19
-2 16 -25 -8 -29 -45 -8 -72 19 -24 18 -53 -1 -41 -13 8 -59 -46 -53 -61 3 -8
10 -11 16 -7 6 4 8 0 4 -9 -3 -9 0 -21 6 -27 6 -6 7 -11 3 -11 -5 0 -3 -6 4
-14 6 -8 17 -13 24 -10 8 3 11 -5 10 -23 -1 -16 -3 -34 -3 -42 -1 -9 -9 -11
-27 -7 -19 5 -25 3 -22 -6 3 -8 17 -12 36 -10 23 3 34 -1 39 -14 4 -10 2 -19
-5 -22 -14 -4 10 -32 28 -32 19 0 2 -17 -37 -35 -35 -17 -36 -18 -15 -26 22
-8 31 -29 12 -29 -5 0 -10 -4 -10 -10 0 -5 9 -10 20 -10 11 0 20 -4 20 -10 0
-5 -7 -10 -15 -10 -8 0 -15 -4 -15 -10 0 -5 7 -7 15 -4 10 4 15 0 15 -11 0 -9
-4 -13 -10 -10 -5 3 -10 1 -10 -4 0 -6 5 -11 11 -11 8 0 7 -6 -2 -17 -13 -15
-12 -15 9 -4 22 12 23 11 17 -8 -5 -17 -3 -20 11 -14 14 5 16 2 11 -17 -3 -13
-1 -30 5 -38 9 -10 8 -16 -3 -23 -13 -8 -6 -11 17 -8 4 0 11 -5 15 -13 5 -7 9
-8 9 -2 0 6 14 11 31 12 19 0 29 -4 26 -11 -3 -7 -10 -11 -17 -9 -27 6 -47
-36 -44 -94 4 -63 14 -87 14 -33 0 26 3 30 10 19 5 -8 10 -27 10 -42 0 -32 5
-34 28 -11 16 16 17 15 20 -6 2 -13 -5 -32 -17 -45 -23 -24 -27 -51 -10 -62 6
-3 16 -1 22 5 9 9 8 11 -5 6 -13 -5 -18 -2 -18 12 0 28 10 34 27 17 13 -13 18
-13 32 -1 9 8 25 17 36 21 15 6 16 9 6 15 -17 11 -7 77 12 78 6 0 18 2 25 4
16 5 28 -14 37 -54 10 -48 22 -21 19 43 -2 50 1 62 17 70 15 8 17 7 13 -5 -4
-8 -10 -15 -15 -15 -5 0 -9 -5 -9 -11 0 -5 5 -7 10 -4 6 3 14 -3 18 -14 6 -18
10 -21 29 -21 3 0 -4 -11 -17 -25 -38 -41 -14 -28 37 19 26 24 53 42 60 39 7
-3 10 -10 7 -17 -3 -6 4 1 16 17 32 41 50 35 50 -15 0 -65 -37 -131 -147 -269
-109 -135 -164 -189 -265 -260 -115 -82 -144 -169 -172 -524 -18 -240 -78
-652 -112 -770 -25 -90 -95 -232 -164 -335 -71 -106 -124 -196 -227 -395 -139
-266 -249 -449 -294 -489 -38 -35 -116 -56 -206 -56 -22 0 -62 -7 -89 -15 -27
-8 -69 -15 -94 -15 -25 0 -67 -7 -94 -15 -27 -8 -64 -15 -83 -15 -26 0 -33 -4
-33 -19 0 -11 5 -23 11 -27 7 -4 1 -13 -14 -23 -32 -20 -171 -190 -163 -198 3
-3 1 -12 -5 -19 -16 -20 -3 -44 22 -44 25 0 94 38 154 84 38 29 38 28 -12 -27
-56 -62 -62 -77 -39 -96 20 -17 48 -2 121 69 44 42 72 60 105 68 24 6 46 10
48 8 1 -2 -28 -30 -65 -62 -82 -71 -85 -75 -71 -91 18 -22 43 -14 112 35 70
52 101 64 206 81 113 18 197 39 236 59 47 24 71 50 245 257 74 88 192 228 263
310 271 316 347 438 392 630 14 61 64 229 111 374 94 296 108 356 122 521 5
63 15 126 21 140 10 24 10 24 4 -5 -3 -16 -5 -89 -5 -162 2 -162 18 -230 97
-408 63 -143 88 -254 66 -297 -17 -34 -54 -187 -47 -198 18 -30 -149 -274
-241 -352 -98 -84 -186 -204 -225 -307 -37 -99 -150 -501 -185 -661 -51 -227
-126 -713 -199 -1285 -42 -327 -71 -477 -130 -666 -110 -354 -130 -475 -145
-874 -20 -522 -28 -623 -54 -725 -13 -52 -31 -113 -40 -135 -8 -22 -15 -51
-16 -64 0 -13 -29 -81 -64 -150 -85 -166 -130 -277 -158 -387 -12 -49 -24 -81
-26 -71 -2 9 -7 17 -11 17 -13 0 -121 112 -121 124 1 26 20 41 62 45 13 2 -4
35 -30 61 -27 26 -67 53 -137 91 -22 12 -43 27 -47 33 -4 6 -8 7 -8 2 0 -5 -7
-2 -16 5 -20 16 -51 34 -83 49 -13 6 -33 20 -43 32 -10 12 -21 18 -24 15 -10
-10 -44 12 -44 28 0 9 -6 12 -17 8 -9 -4 -14 -2 -10 3 3 5 -7 10 -21 9 -15 0
-26 5 -25 10 1 6 -10 12 -24 13 -14 1 -33 8 -41 14 -13 11 -14 10 -8 -10 6
-18 4 -21 -11 -16 -14 5 -15 4 -4 -4 13 -9 13 -13 0 -28 -13 -15 -12 -16 11
-10 21 6 23 5 10 -6 -15 -13 -20 -61 -7 -74 4 -4 7 -20 7 -36 0 -16 5 -28 13
-28 7 0 13 -14 14 -33 1 -17 15 -59 31 -92 16 -33 32 -70 36 -82 4 -13 12 -23
17 -23 5 0 8 -3 7 -7 -8 -25 61 -129 140 -214 107 -113 177 -169 281 -224 42
-23 80 -50 86 -62 28 -64 179 -86 256 -38 41 27 103 111 93 127 -4 6 10 26 29
46 51 54 86 130 103 224 8 46 20 97 26 113 6 17 12 55 13 85 3 72 29 181 60
250 44 101 56 166 59 335 2 103 9 185 20 230 37 158 132 417 227 617 112 238
131 311 149 563 12 167 18 196 55 305 14 41 43 145 65 230 47 186 93 322 165
485 29 66 76 176 105 245 29 69 98 227 155 351 57 124 126 290 153 370 27 79
60 166 73 192 22 45 25 47 54 41 16 -4 39 -10 50 -14 31 -12 120 -195 265
-545 73 -176 174 -410 225 -520 161 -346 195 -441 264 -741 57 -245 61 -283
65 -554 5 -351 20 -415 172 -761 115 -261 254 -626 269 -704 23 -117 21 -154
-9 -213 -14 -29 -33 -78 -41 -110 -13 -51 -13 -64 0 -116 9 -32 13 -66 11 -75
-5 -13 12 -71 48 -166 5 -11 4 -16 -1 -10 -4 6 -21 15 -38 21 -28 11 -193 80
-260 109 -16 8 -50 21 -75 30 -25 9 -54 21 -65 25 -11 5 -30 12 -42 15 -13 4
-23 11 -23 16 0 5 -8 9 -18 9 -10 0 -29 8 -42 17 -14 10 -25 16 -25 15 0 -6
-48 13 -187 76 -37 17 -69 28 -72 24 -3 -3 -6 0 -6 7 0 8 -6 11 -16 7 -8 -3
-12 -2 -9 4 3 6 -2 10 -12 10 -10 0 -29 7 -41 16 -12 8 -22 12 -22 9 0 -3 -10
0 -22 7 -13 7 -28 11 -35 10 -6 -1 -14 2 -18 8 -5 8 -11 7 -21 -1 -11 -9 -14
-8 -14 6 0 25 -33 14 -35 -12 -1 -13 2 -23 6 -23 3 0 9 -9 12 -20 3 -11 12
-20 21 -20 9 0 16 -3 16 -8 0 -4 16 -16 35 -26 19 -10 32 -23 28 -29 -4 -6 0
-8 9 -4 11 4 18 -1 21 -14 3 -10 12 -19 21 -19 9 0 16 -4 16 -9 0 -5 8 -12 18
-15 9 -3 30 -17 46 -31 16 -14 35 -25 43 -25 7 0 13 -3 13 -7 0 -5 21 -21 48
-38 26 -16 49 -32 52 -36 3 -3 23 -16 45 -28 64 -34 130 -73 135 -80 3 -3 22
-15 43 -26 20 -11 37 -23 37 -27 0 -5 4 -8 10 -8 28 0 461 -308 501 -356 7 -9
15 -25 16 -37 8 -48 81 -91 138 -81 13 2 27 0 30 -6 3 -5 16 -10 28 -10 12 0
58 -10 102 -21 296 -76 498 -80 520 -10 3 10 4 23 3 28 -2 5 12 22 30 38 29
26 33 37 34 85 2 80 -10 177 -26 208 -19 37 -48 61 -131 109 -104 62 -177 132
-223 216 -22 39 -54 98 -72 131 -18 32 -35 73 -37 90 -1 17 -11 42 -21 56 -23
30 -76 172 -97 258 -48 193 -84 410 -110 672 -37 362 -80 635 -141 890 -20 81
-41 207 -49 285 -7 77 -25 205 -39 285 -13 80 -32 237 -41 350 -55 707 -113
1092 -241 1610 -61 246 -66 276 -74 425 -8 156 -13 185 -61 329 -41 121 -67
233 -58 248 5 9 5 80 -1 163 -8 131 -7 158 11 244 34 168 98 400 160 585 49
146 60 191 60 245 1 68 -30 257 -56 348 -14 46 -13 58 1 115 11 44 18 152 25
363 5 178 15 331 23 375 8 41 31 183 51 315 47 314 69 435 105 575 58 224 64
292 54 610 -15 483 -11 506 85 613 106 120 155 277 130 427 -6 42 -9 89 -5
103 6 25 11 27 56 27 52 0 62 -10 36 -39 -8 -9 -17 -28 -21 -43 -6 -21 -1 -31
21 -50 92 -76 129 -118 157 -176 16 -35 33 -59 37 -55 4 4 12 27 18 51 10 41
8 47 -29 110 -21 37 -39 72 -39 78 0 14 -95 104 -110 104 -5 0 -10 3 -10 8 0
4 25 5 55 4 51 -4 57 -7 87 -45 18 -23 42 -49 53 -57 42 -32 138 -52 185 -39
19 5 54 13 77 19 50 12 51 21 10 94 -15 27 -27 52 -27 55 0 13 -55 59 -90 75
-52 24 -88 15 -185 -43 -80 -49 -90 -52 -128 -45 l-42 8 60 8 c50 6 65 13 89
40 15 18 35 48 43 66 17 40 20 191 5 201 -11 7 216 193 241 199 7 1 30 -9 51
-23 21 -14 63 -32 94 -40 31 -8 60 -19 66 -25 21 -21 26 -9 10 20 -10 16 -32
34 -48 40 -46 16 -14 31 50 23 48 -5 53 -4 69 21 26 39 30 108 11 170 -13 41
-28 63 -69 98 -110 95 -125 93 -206 -19 -61 -84 -86 -136 -75 -154 10 -17 -13
-9 -31 11 -10 11 -24 20 -32 20 -9 0 -13 15 -13 48 -1 26 -9 70 -19 97 -14 42
-22 51 -45 53 -33 4 -99 -29 -142 -69 l-31 -30 -7 67 c-6 54 -13 75 -37 106
-29 35 -69 67 -69 53z m400 -395 c14 -15 31 -30 38 -32 19 -5 -264 -248 -289
-248 -6 0 -5 9 2 21 6 12 9 50 7 87 l-3 66 33 7 c51 10 108 54 128 98 22 47
43 47 84 1z m-379 -554 c15 -26 0 -37 -42 -30 l-36 6 10 47 c14 70 28 81 44
34 7 -21 18 -46 24 -57z m-1341 -996 c0 -5 -4 -10 -10 -10 -5 0 -10 5 -10 10
0 6 5 10 10 10 6 0 10 -4 10 -10z m-538 -92 c-7 -7 -12 -8 -12 -2 0 14 12 26
19 19 2 -3 -1 -11 -7 -17z m716 10 c0 -7 2 -20 4 -28 2 -8 -1 -17 -6 -20 -5
-3 -11 10 -12 28 -1 17 1 32 5 32 4 0 8 -6 9 -12z m82 -68 c0 -5 -4 -10 -10
-10 -5 0 -10 5 -10 10 0 6 5 10 10 10 6 0 10 -4 10 -10z m-856 -42 c-3 -4 -9
-8 -15 -8 -5 0 -9 4 -9 8 0 5 7 9 15 9 8 0 12 -4 9 -9z m-124 -37 c0 -6 -4
-13 -10 -16 -5 -3 -10 1 -10 9 0 9 5 16 10 16 6 0 10 -4 10 -9z m1025 -11 c3
-5 -1 -10 -9 -10 -9 0 -16 5 -16 10 0 6 4 10 9 10 6 0 13 -4 16 -10z m111 -76
c-3 -9 -6 -21 -6 -27 0 -8 -3 -8 -11 0 -13 13 -5 43 12 43 6 0 8 -7 5 -16z
m-1189 -71 c-9 -8 -48 8 -42 18 4 5 14 5 26 -2 12 -6 18 -13 16 -16z m1153 -3
c0 -5 -2 -10 -4 -10 -3 0 -8 5 -11 10 -3 6 -1 10 4 10 6 0 11 -4 11 -10z m20
-40 c0 -5 -5 -10 -11 -10 -5 0 -7 5 -4 10 3 6 8 10 11 10 2 0 4 -4 4 -10z
m-1325 -20 c-3 -5 -11 -10 -16 -10 -6 0 -7 5 -4 10 3 6 11 10 16 10 6 0 7 -4
4 -10z m-85 -194 c0 -3 -4 -8 -10 -11 -5 -3 -10 -1 -10 4 0 6 5 11 10 11 6 0
10 -2 10 -4z m1472 -31 c0 -5 -5 -11 -11 -13 -6 -2 -11 4 -11 13 0 9 5 15 11
13 6 -2 11 -8 11 -13z m-47 -205 c-3 -5 -11 -10 -16 -10 -6 0 -7 5 -4 10 3 6
11 10 16 10 6 0 7 -4 4 -10z m-1545 -29 c0 -6 -4 -13 -10 -16 -5 -3 -10 1 -10
9 0 9 5 16 10 16 6 0 10 -4 10 -9z m1505 -111 c3 -5 2 -10 -4 -10 -5 0 -13 5
-16 10 -3 6 -2 10 4 10 5 0 13 -4 16 -10z m12 -51 c2 -12 -1 -18 -7 -14 -5 3
-10 16 -10 27 0 26 13 16 17 -13z m-1537 -77 c0 -13 -39 -32 -45 -22 -4 6 4
14 17 19 30 12 28 12 28 3z m1468 -14 c-2 -6 -10 -14 -16 -16 -7 -2 -10 2 -6
12 7 18 28 22 22 4z m-1465 -45 c6 -33 -5 -49 -21 -30 -12 14 -6 57 8 57 4 0
10 -12 13 -27z m87 -12 c0 -18 -25 -29 -37 -16 -6 7 -9 16 -6 19 10 9 43 7 43
-3z m1408 -29 c-9 -11 -14 -11 -26 2 -20 20 -7 39 18 24 14 -9 16 -15 8 -26z
m-58 -12 c0 -5 -2 -10 -4 -10 -3 0 -8 5 -11 10 -3 6 -1 10 4 10 6 0 11 -4 11
-10z m16 -32 c4 -6 2 -8 -4 -4 -6 3 -13 2 -17 -3 -3 -6 -12 -8 -20 -5 -8 4
-13 9 -11 13 7 11 45 10 52 -1z m-56 -75 c0 -5 -5 -15 -10 -23 -8 -12 -10 -11
-10 8 0 12 5 22 10 22 6 0 10 -3 10 -7z m-36 -110 l-7 -38 27 24 c29 27 36 19
9 -11 -9 -10 -23 -18 -32 -18 -14 0 -14 -2 -1 -10 11 -8 7 -9 -15 -4 -41 9
-41 10 -17 44 12 16 22 34 22 40 0 5 5 10 10 10 7 0 8 -14 4 -37z m-1134 -284
c0 -10 -6 -24 -14 -31 -8 -9 -11 -26 -8 -47 3 -22 0 -36 -9 -42 -24 -15 -27
-10 -22 34 3 31 2 38 -6 27 -9 -12 -11 -11 -11 8 0 13 4 21 9 18 5 -3 13 7 19
22 11 31 42 39 42 11z m301 -43 c-6 -7 -22 -16 -34 -19 -20 -5 -19 -3 7 19 29
26 48 26 27 0z m-394 -18 c-3 -8 -6 -5 -6 6 -1 11 2 17 5 13 3 -3 4 -12 1 -19z
m158 -8 c1 -10 -2 -17 -6 -14 -4 2 -10 -2 -12 -8 -4 -8 -6 -7 -6 4 -2 42 21
60 24 18z m-55 -90 c0 -16 -4 -30 -10 -30 -5 0 -10 14 -10 30 0 17 5 30 10 30
6 0 10 -13 10 -30z"/>
<path d="M3438 10703 c7 -3 16 -2 19 1 4 3 -2 6 -13 5 -11 0 -14 -3 -6 -6z"/>
<path d="M2731 10365 c1 -19 18 -51 18 -35 0 8 -4 22 -9 30 -5 8 -9 11 -9 5z"/>
<path d="M4091 10033 c0 -12 2 -13 6 -5 4 10 8 10 21 0 15 -12 16 -11 3 5 -7
9 -17 17 -22 17 -5 0 -9 -8 -8 -17z"/>
<path d="M2411 9859 c-1 -9 7 -23 17 -30 15 -12 16 -12 6 1 -6 8 -14 22 -17
30 -5 13 -6 12 -6 -1z"/>
<path d="M4035 9629 c-4 -6 -14 -8 -22 -5 -8 3 -11 1 -8 -4 9 -15 32 -12 39 5
6 17 0 20 -9 4z"/>
<path d="M2420 9211 c0 -5 7 -12 16 -15 14 -5 15 -4 4 9 -14 17 -20 19 -20 6z"/>
<path d="M2514 8865 c-3 -8 -4 -20 -2 -27 3 -7 7 -1 10 15 6 29 1 36 -8 12z"/>
<path d="M2720 8730 c-9 -6 -10 -10 -3 -10 6 0 15 5 18 10 8 12 4 12 -15 0z"/>
</g>
</svg>
