<?xml version="1.0" standalone="no"?>
<!DOCTYPE svg PUBLIC "-//W3C//DTD SVG 20010904//EN"
 "http://www.w3.org/TR/2001/REC-SVG-20010904/DTD/svg10.dtd">
<svg version="1.0" xmlns="http://www.w3.org/2000/svg"
 width="603.000000pt" height="1280.000000pt" viewBox="0 0 603.000000 1280.000000"
 preserveAspectRatio="xMidYMid meet">
<metadata>
Created by potrace 1.15, written by Peter Selinger 2001-2017
</metadata>
<g transform="translate(0.000000,1280.000000) scale(0.100000,-0.100000)"
fill="#000000" stroke="none">
<path d="M4060 12420 c-11 -11 -20 -27 -20 -35 0 -8 -4 -15 -9 -15 -5 0 -12
-13 -16 -30 -8 -38 -19 -44 -36 -23 -10 12 -10 14 -1 9 6 -4 12 -3 12 2 0 5
-9 12 -20 15 -11 3 -20 1 -20 -4 0 -5 -9 -9 -21 -9 -11 0 -37 -17 -57 -37 -20
-21 -33 -30 -30 -21 5 11 0 18 -14 21 -12 4 -17 10 -13 18 6 9 1 10 -19 7 -14
-3 -29 -2 -31 2 -2 4 -17 5 -31 2 -24 -4 -25 -6 -11 -17 9 -6 14 -20 12 -31
-2 -10 -4 -22 -4 -26 -1 -4 -11 -13 -23 -19 -17 -9 -24 -9 -33 5 -11 15 -15
14 -39 -5 -15 -12 -37 -19 -53 -17 -21 2 -28 -2 -36 -26 -7 -22 -7 -31 2 -34
8 -3 6 -8 -6 -17 -10 -7 -20 -9 -23 -5 -8 13 -55 -13 -55 -30 0 -8 -9 -19 -21
-25 -11 -5 -19 -15 -17 -22 2 -6 -1 -14 -6 -18 -7 -3 -8 0 -5 9 7 19 -13 20
-41 3 -31 -19 -30 -38 2 -32 27 5 27 5 6 -6 -25 -13 -25 -14 -27 -74 -1 -38
-2 -39 -46 -48 -47 -8 -103 -57 -94 -82 6 -16 -35 -42 -63 -40 -12 1 -20 -2
-17 -7 14 -22 13 -63 -2 -85 -9 -14 -11 -23 -6 -19 6 4 16 -2 21 -12 8 -15 5
-24 -13 -41 -12 -12 -25 -18 -29 -15 -3 3 -3 -3 0 -15 3 -12 1 -21 -6 -21 -6
0 -11 -7 -11 -15 0 -8 7 -15 15 -15 26 0 16 -17 -13 -23 -20 -4 -30 -14 -38
-39 -15 -43 -16 -85 -4 -93 6 -3 10 -11 10 -16 0 -6 -5 -7 -12 -3 -7 4 -8 3
-4 -5 4 -6 12 -8 18 -5 21 13 26 -20 7 -53 -19 -34 -19 -34 1 -28 29 9 43 -3
24 -22 -12 -13 -18 -13 -24 -4 -5 9 -10 10 -14 2 -4 -6 -2 -11 4 -11 7 0 5 -9
-4 -22 -19 -27 -20 -41 -3 -35 6 2 19 -8 28 -22 14 -24 14 -27 0 -39 -14 -12
-11 -13 19 -8 l35 6 -24 -20 c-17 -15 -19 -20 -7 -20 10 0 13 -6 10 -15 -8
-20 14 -45 33 -38 12 5 14 1 8 -17 -9 -29 -55 -76 -71 -72 -20 4 -28 -20 -10
-30 9 -5 16 -16 16 -23 0 -8 9 -15 20 -15 11 0 20 7 20 15 0 9 6 12 15 9 20
-8 19 -40 -2 -48 -13 -5 -14 -9 -5 -15 14 -8 18 -47 7 -76 -4 -13 3 -9 22 13
34 39 43 40 43 7 0 -14 5 -25 10 -25 6 0 10 -4 10 -10 0 -5 -8 -10 -17 -10
-16 -1 -16 -2 1 -11 14 -9 20 -8 26 2 7 10 11 10 24 0 8 -7 24 -10 36 -6 14 4
22 1 26 -10 8 -20 -4 -34 -15 -16 -6 9 -10 7 -14 -8 -3 -14 6 -39 29 -73 19
-28 32 -53 29 -56 -3 -3 -5 0 -5 7 0 9 -4 8 -15 -3 -20 -20 -19 -36 3 -36 30
0 41 19 31 53 -13 44 -11 51 6 37 12 -10 15 -9 15 5 0 14 -6 16 -32 11 -21 -4
-28 -3 -19 3 7 5 10 14 7 20 -7 11 5 15 32 12 6 -1 12 5 12 14 0 13 5 12 29
-6 16 -11 35 -32 42 -46 11 -20 11 -26 -1 -33 -8 -6 -10 -10 -5 -10 6 0 16 5
22 11 9 9 14 5 19 -16 4 -18 2 -30 -7 -37 -11 -7 -11 -11 -1 -15 15 -6 16 -33
0 -33 -6 0 -8 -3 -4 -7 11 -11 36 27 36 54 0 28 16 30 25 3 7 -21 2 -67 -16
-145 -9 -38 -23 -61 -63 -100 -28 -28 -69 -57 -91 -64 -26 -9 -114 -16 -245
-21 l-205 -7 -120 -41 c-145 -50 -204 -60 -405 -68 -139 -6 -169 -4 -275 16
-160 31 -301 30 -580 -4 -121 -14 -235 -29 -252 -32 l-33 -6 0 143 c0 147 4
173 56 324 13 39 24 78 24 88 0 22 -24 22 -46 0 -18 -19 -64 -111 -64 -130 0
-6 -4 -14 -8 -17 -12 -7 17 139 44 224 24 75 22 95 -11 88 -28 -5 -52 -46 -89
-148 l-35 -95 6 75 c3 41 11 107 19 145 19 97 19 105 -11 105 -44 0 -70 -68
-105 -271 -11 -62 -23 -116 -28 -121 -11 -11 -23 189 -15 262 4 42 2 59 -10
68 -55 46 -83 -75 -91 -380 -2 -91 -7 -171 -10 -177 -16 -26 -57 -10 -118 48
-35 32 -74 64 -86 70 -34 18 -70 6 -78 -26 -6 -24 0 -34 58 -88 36 -33 89 -96
118 -140 86 -130 125 -171 193 -205 63 -31 160 -49 263 -50 32 0 143 -26 297
-70 355 -100 436 -111 591 -85 70 12 132 16 205 12 124 -5 424 -29 430 -34 2
-1 -20 -30 -49 -64 -121 -139 -180 -262 -180 -373 0 -28 27 -163 60 -301 34
-137 63 -262 67 -277 5 -28 5 -28 -43 -28 -68 1 -238 26 -262 39 -12 6 -73 11
-140 11 l-119 0 29 143 c16 78 33 165 39 193 9 47 13 52 41 58 17 3 45 22 64
42 22 25 39 35 52 32 31 -8 52 10 52 44 0 18 7 36 18 44 16 12 15 13 -5 14
-24 0 -43 26 -43 58 0 21 -39 62 -60 62 -8 0 -29 14 -46 31 -24 23 -45 33 -78
36 -43 5 -49 3 -80 -30 -23 -25 -37 -33 -47 -26 -24 15 -29 10 -17 -18 7 -16
12 -66 13 -111 l0 -84 38 -30 c34 -28 37 -34 31 -65 -6 -33 -6 -34 14 -22 12
7 23 11 26 8 7 -7 -18 -162 -46 -281 l-22 -98 -41 0 c-55 0 -88 -19 -101 -59
-7 -23 -21 -38 -42 -47 -44 -18 -61 -56 -40 -92 14 -25 14 -29 -3 -57 -23 -37
-24 -49 -2 -82 10 -14 16 -38 15 -52 -3 -29 38 -130 59 -148 8 -6 34 -14 58
-18 43 -7 43 -7 38 -44 -4 -20 -18 -139 -32 -266 -14 -126 -32 -259 -40 -295
-8 -40 -10 -69 -4 -75 18 -18 27 11 39 125 29 281 66 535 77 533 6 -2 30 -6
53 -9 41 -7 42 -7 38 22 -2 24 -10 32 -45 44 -49 16 -61 46 -16 37 161 -30
159 -30 181 -11 31 26 28 59 -8 86 l-30 22 46 22 c33 16 60 21 93 19 38 -3
348 -65 401 -81 21 -6 66 -184 49 -194 -7 -5 -9 -19 -5 -36 3 -16 10 -69 15
-118 6 -65 13 -91 25 -98 14 -8 16 -32 16 -168 0 -181 -5 -213 -65 -400 -76
-239 -88 -302 -82 -410 10 -160 62 -304 159 -435 49 -66 417 -426 543 -530 44
-37 116 -92 160 -123 152 -106 256 -185 253 -192 -2 -4 -31 -27 -65 -51 -34
-24 -96 -75 -137 -112 l-74 -68 -49 25 c-215 108 -351 -12 -252 -222 37 -77
61 -114 131 -194 30 -35 88 -106 130 -158 169 -215 371 -370 480 -370 46 0 44
10 58 -220 12 -193 7 -270 -34 -560 -14 -96 -32 -254 -41 -350 -39 -446 -105
-861 -181 -1155 -17 -64 -37 -244 -35 -309 1 -57 -26 -265 -44 -339 -9 -34
-43 -148 -75 -253 -32 -105 -60 -213 -61 -240 -5 -93 19 -213 50 -248 37 -43
143 -60 252 -41 133 23 242 83 278 154 21 40 51 216 51 296 0 26 7 72 16 103
14 47 15 63 4 108 -10 40 -11 98 -4 241 12 249 9 314 -17 403 -18 58 -22 97
-21 174 2 113 12 149 85 311 70 155 300 743 331 845 52 174 61 248 61 495 -1
173 -5 258 -19 345 -13 81 -20 195 -23 386 l-6 271 69 12 c116 21 195 77 257
182 32 54 57 147 57 210 0 105 -69 284 -163 423 l-33 50 38 155 c85 343 123
644 108 850 -25 330 -85 534 -238 814 -88 160 -148 233 -314 383 -135 122
-188 183 -188 215 0 28 -65 196 -83 213 -23 23 -31 113 -17 181 12 56 21 80
109 287 22 54 41 105 41 114 0 18 43 99 161 305 43 75 91 162 105 195 15 32
38 75 50 96 61 96 110 277 99 358 -11 81 -36 138 -80 188 -48 53 -78 69 -208
107 -141 42 -192 104 -204 245 l-6 69 52 50 c58 56 66 61 58 31 -4 -15 0 -20
14 -20 22 0 24 11 7 28 -9 9 -9 12 0 12 7 0 11 3 10 8 -2 4 2 8 7 9 6 2 10 -6
10 -17 1 -23 3 -24 28 -15 9 4 17 17 17 31 0 17 4 22 15 18 8 -4 15 -1 15 5 0
6 7 11 16 11 11 0 14 6 8 23 -3 12 -3 19 1 14 11 -10 45 22 45 43 0 10 13 23
29 30 30 12 71 50 55 50 -5 0 2 6 16 13 14 8 24 19 22 26 -1 6 2 21 8 31 11
21 7 24 -37 20 -29 -2 -29 6 -2 20 15 8 24 8 34 0 11 -9 14 -7 12 9 -1 13 -6
20 -14 17 -7 -3 -13 -3 -13 -1 0 10 40 69 40 60 0 -5 9 1 20 15 14 18 20 20
20 10 0 -9 -5 -21 -12 -28 -9 -9 -8 -16 6 -30 17 -15 18 -15 13 0 -8 24 13 88
41 122 18 23 23 39 20 68 -3 34 -1 38 19 38 49 0 71 17 80 62 7 35 6 46 -9 62
-21 23 -22 32 -7 42 6 3 18 -1 27 -10 13 -13 13 -16 2 -16 -11 0 -11 -3 -2
-12 16 -16 29 -1 16 20 -9 13 -7 19 10 27 13 7 21 20 21 35 0 15 10 33 26 45
14 11 24 26 21 34 -2 7 2 17 9 22 11 6 11 11 2 20 -9 9 -16 9 -28 -1 -12 -10
-15 -10 -15 4 0 10 4 15 9 12 11 -7 21 17 21 49 0 22 24 41 45 36 5 -1 2 6 -8
17 -9 10 -17 32 -17 49 0 17 -3 39 -6 47 -6 15 -8 15 -19 -1 -15 -20 -19 -18
-29 15 -5 13 -3 22 4 22 6 0 14 10 19 23 7 17 3 27 -16 45 -13 12 -28 22 -34
22 -13 0 -12 4 13 51 16 32 18 43 8 49 -9 5 -11 19 -6 41 4 22 3 29 -3 20 -12
-19 -41 -6 -41 19 0 25 -1 25 -43 0 -31 -19 -35 -19 -47 -4 -12 13 -11 17 1
25 10 6 10 9 2 9 -7 0 -13 9 -13 19 0 10 -6 21 -14 24 -8 3 -12 14 -10 24 3
12 -11 36 -40 68 -24 27 -42 53 -40 57 2 4 0 9 -6 13 -5 3 -10 -3 -10 -13 0
-16 -18 -32 -35 -32 -2 0 1 14 6 30 6 17 15 30 20 30 5 0 9 8 9 18 0 14 -2 15
-10 2 -7 -12 -12 -12 -29 4 -11 10 -18 23 -15 27 8 13 -20 11 -33 -2 -8 -8
-13 -8 -17 0 -4 6 -16 11 -26 11 -10 0 -21 6 -23 13 -4 8 -6 7 -6 -3 -1 -10
-10 -5 -27 15 -16 20 -27 26 -30 18 -11 -25 -26 -13 -19 14 6 23 4 25 -10 13
-9 -7 -14 -19 -11 -26 6 -16 -21 -26 -42 -15 -9 5 -30 7 -46 5 -25 -3 -28 0
-23 22 7 36 -6 19 -19 -27 -7 -21 -8 -37 -4 -34 5 3 11 1 15 -5 3 -5 -1 -10
-10 -10 -22 0 -29 24 -15 50 6 12 8 25 4 28 -4 4 -9 1 -11 -5 -8 -22 -25 -14
-18 7 3 11 2 20 -3 20 -6 0 -12 -5 -14 -11 -3 -8 -9 -7 -19 3 -19 19 -66 31
-74 18 -3 -6 4 -10 16 -10 14 0 19 -4 14 -9 -11 -11 -65 -3 -65 10 0 4 10 15
22 23 12 9 17 16 10 16 -6 0 -21 -9 -32 -20z m410 -136 c0 -8 -5 -12 -10 -9
-6 4 -8 11 -5 16 9 14 15 11 15 -7z m-70 -13 c0 -5 -8 -12 -17 -16 -17 -7 -16
-8 2 -15 19 -8 19 -9 -2 -9 -26 -1 -27 2 -13 30 11 19 30 26 30 10z m110 -7
c0 -8 -19 -13 -24 -6 -3 5 1 9 9 9 8 0 15 -2 15 -3z m167 -106 c-3 -8 -6 -5
-6 6 -1 11 2 17 5 13 3 -3 4 -12 1 -19z m41 -86 c-5 -23 -25 -25 -31 -3 -6 24
0 31 19 24 8 -3 14 -12 12 -21z m-1228 -16 c0 -2 -7 -7 -16 -10 -8 -3 -12 -2
-9 4 6 10 25 14 25 6z m-63 -75 c1 -11 -8 -23 -23 -30 -19 -8 -24 -8 -24 4 0
10 35 45 45 45 0 0 1 -8 2 -19z m1383 3 c0 -8 -5 -12 -10 -9 -6 4 -8 11 -5 16
9 14 15 11 15 -7z m-60 -18 c0 -3 -4 -8 -10 -11 -5 -3 -10 -1 -10 4 0 6 5 11
10 11 6 0 10 -2 10 -4z m118 -76 c-15 -24 -28 -26 -28 -4 0 8 5 12 10 9 6 -3
10 -1 10 4 0 6 5 11 10 11 6 0 5 -8 -2 -20z m-32 -86 c-3 -9 -6 -21 -6 -27 0
-8 -3 -8 -11 0 -13 13 -5 43 12 43 6 0 8 -7 5 -16z m-1666 -54 c0 -5 -5 -10
-11 -10 -5 0 -7 5 -4 10 3 6 8 10 11 10 2 0 4 -4 4 -10z m1 -97 c-8 -15 -10
-15 -11 -2 0 17 10 32 18 25 2 -3 -1 -13 -7 -23z m1749 17 c0 -5 -2 -10 -4
-10 -3 0 -8 5 -11 10 -3 6 -1 10 4 10 6 0 11 -4 11 -10z m-1770 -180 c0 -5 -4
-10 -10 -10 -5 0 -10 5 -10 10 0 6 5 10 10 10 6 0 10 -4 10 -10z m-56 -36 c8
-22 9 -21 -19 -26 -28 -6 -29 -4 -15 23 13 23 26 24 34 3z m1710 -160 c3 -8 2
-12 -4 -9 -6 3 -10 10 -10 16 0 14 7 11 14 -7z m-34 2 c0 -3 -4 -8 -10 -11 -5
-3 -10 -1 -10 4 0 6 5 11 10 11 6 0 10 -2 10 -4z m10 -96 c0 -5 -5 -10 -11
-10 -5 0 -7 5 -4 10 3 6 8 10 11 10 2 0 4 -4 4 -10z m-1610 -47 c-1 -17 -29
-45 -39 -39 -14 9 -3 34 17 39 10 3 18 5 20 6 1 0 2 -2 2 -6z m1547 -51 c-10
-10 -17 -23 -17 -29 0 -10 -29 -27 -36 -20 -2 1 -1 13 3 26 4 15 8 19 13 11 5
-9 10 -6 15 9 3 11 13 21 22 21 14 0 14 -2 0 -18z m-97 -8 c0 -8 -4 -12 -10
-9 -5 3 -10 10 -10 16 0 5 5 9 10 9 6 0 10 -7 10 -16z m-2 -74 c3 -20 2 -22
-11 -12 -12 10 -13 8 -9 -13 5 -31 -5 -32 -29 -4 -18 21 -18 22 4 40 27 23 41
19 45 -11z m-1208 0 c0 -5 -2 -10 -4 -10 -3 0 -8 5 -11 10 -3 6 -1 10 4 10 6
0 11 -4 11 -10z m-220 -115 c0 -12 -19 -12 -23 0 -4 9 -1 12 9 8 7 -3 14 -7
14 -8z m1280 -15 c0 -5 -5 -10 -11 -10 -5 0 -7 5 -4 10 3 6 8 10 11 10 2 0 4
-4 4 -10z m-1233 -49 c14 -25 17 -38 7 -28 -4 3 -16 2 -26 -4 -15 -8 -23 -8
-32 1 -8 9 -8 11 3 8 7 -2 16 3 18 10 3 7 0 11 -5 10 -10 -3 -12 1 -12 21 0
18 35 5 47 -18z m113 -1 c0 -5 -9 -10 -21 -10 -11 0 -17 5 -14 10 3 6 13 10
21 10 8 0 14 -4 14 -10z m1243 3 c7 -6 -41 -43 -56 -43 -14 0 4 21 27 31 21 9
21 10 -1 5 -13 -2 -23 0 -23 5 0 10 43 12 53 2z m-1203 -17 c0 -3 -4 -8 -10
-11 -5 -3 -10 -1 -10 4 0 6 5 11 10 11 6 0 10 -2 10 -4z m40 -10 c0 -3 -4 -8
-10 -11 -5 -3 -10 -1 -10 4 0 6 5 11 10 11 6 0 10 -2 10 -4z m-146 -22 c8 -21
8 -24 -3 -24 -5 0 -11 9 -14 20 -6 24 8 27 17 4z m81 6 c3 -6 -1 -7 -9 -4 -18
7 -21 14 -7 14 6 0 13 -4 16 -10z m165 -45 c20 -24 6 -28 -15 -5 -10 11 -13
20 -8 20 6 0 16 -7 23 -15z m-192 -18 c3 -12 -3 -15 -25 -12 -15 2 -32 4 -36
4 -5 1 -5 6 -2 11 4 6 10 8 15 5 5 -3 12 -1 15 5 9 15 29 7 33 -13z m82 3 c0
-5 -2 -10 -4 -10 -3 0 -8 5 -11 10 -3 6 -1 10 4 10 6 0 11 -4 11 -10z m1030
-4 c0 -3 -4 -8 -10 -11 -5 -3 -10 -1 -10 4 0 6 5 11 10 11 6 0 10 -2 10 -4z
m-970 -22 c0 -8 -4 -12 -10 -9 -5 3 -10 10 -10 16 0 5 5 9 10 9 6 0 10 -7 10
-16z m80 -46 c0 -14 -19 1 -31 25 -12 22 -12 22 10 3 11 -11 21 -23 21 -28z
m-45 -8 c21 -41 19 -45 -10 -14 -26 28 -32 44 -15 44 5 0 16 -13 25 -30z
m-1500 -2470 l20 -9 -20 0 c-11 0 -27 4 -35 9 -13 9 -13 10 0 9 8 0 24 -4 35
-9z"/>
<path d="M4436 12423 c-6 -14 -5 -15 5 -6 7 7 10 15 7 18 -3 3 -9 -2 -12 -12z"/>
<path d="M4481 12418 c0 -9 -11 -24 -23 -32 -12 -9 -18 -16 -13 -16 21 1 47
29 42 47 -4 15 -5 16 -6 1z"/>
<path d="M4340 12370 c13 -23 20 -26 20 -6 0 8 -7 16 -15 20 -13 4 -14 2 -5
-14z"/>
<path d="M3564 12259 c-3 -6 -1 -16 5 -22 8 -8 11 -5 11 11 0 24 -5 28 -16 11z"/>
<path d="M4678 12233 c7 -3 16 -2 19 1 4 3 -2 6 -13 5 -11 0 -14 -3 -6 -6z"/>
<path d="M4721 12188 c0 -13 3 -17 6 -10 8 20 26 13 20 -9 -4 -16 -3 -18 9 -8
16 13 11 24 -17 39 -16 9 -19 7 -18 -12z"/>
<path d="M4806 12103 c-11 -11 -7 -20 9 -20 8 0 15 4 15 8 0 11 -16 20 -24 12z"/>
<path d="M4850 12050 c-9 -6 -10 -10 -3 -10 6 0 15 5 18 10 8 12 4 12 -15 0z"/>
<path d="M4960 11709 c0 -5 5 -7 10 -4 6 3 10 8 10 11 0 2 -4 4 -10 4 -5 0
-10 -5 -10 -11z"/>
<path d="M3098 11643 c-3 -4 3 -16 14 -25 21 -21 24 -11 4 15 -8 10 -16 15
-18 10z"/>
<path d="M3041 11118 c0 -7 4 -22 9 -33 7 -17 9 -15 9 13 1 17 -3 32 -9 32 -5
0 -10 -6 -9 -12z"/>
<path d="M3167 10703 c-4 -3 -7 -11 -7 -17 0 -6 5 -5 12 2 6 6 9 14 7 17 -3 3
-9 2 -12 -2z"/>
<path d="M3225 10660 c-4 -11 -15 -20 -26 -20 -11 0 -17 -4 -14 -10 10 -16 65
-12 65 5 0 8 -4 15 -10 15 -5 0 -7 7 -4 15 4 8 4 15 1 15 -3 0 -9 -9 -12 -20z"/>
<path d="M4465 10620 c3 -5 8 -10 11 -10 2 0 4 5 4 10 0 6 -5 10 -11 10 -5 0
-7 -4 -4 -10z"/>
<path d="M4246 10485 c-11 -8 -15 -15 -9 -15 6 0 16 7 23 15 16 19 11 19 -14
0z"/>
<path d="M3365 10480 c3 -5 8 -10 11 -10 2 0 4 5 4 10 0 6 -5 10 -11 10 -5 0
-7 -4 -4 -10z"/>
<path d="M1866 9198 c-2 -13 -10 -50 -16 -83 -7 -33 -12 -82 -12 -110 l1 -50
-17 25 c-36 53 -70 80 -102 80 -38 0 -56 -9 -106 -54 -22 -19 -50 -44 -64 -55
-25 -21 -25 -21 -5 -37 11 -9 52 -36 90 -61 63 -40 74 -44 116 -39 29 3 63 16
90 35 24 16 48 27 54 23 5 -3 1 5 -10 18 -20 22 -19 22 32 -4 37 -18 51 -30
47 -41 -4 -8 -12 -15 -20 -15 -38 0 -123 -50 -159 -94 l-38 -46 19 -43 c36
-84 35 -83 95 -27 30 27 58 50 63 50 5 0 29 11 52 25 l43 25 -24 52 c-13 28
-22 55 -19 59 5 9 51 -6 73 -24 12 -10 13 -9 7 2 -5 7 -24 19 -42 27 -19 8
-34 21 -34 28 0 8 16 42 37 76 55 93 46 154 -31 222 -17 15 -36 27 -42 28 -6
0 -17 7 -24 15 -19 23 -49 19 -54 -7z"/>
<path d="M1920 8860 c8 -5 22 -9 30 -9 10 0 8 3 -5 9 -27 12 -43 12 -25 0z"/>
</g>
</svg>
