<?xml version="1.0" standalone="no"?>
<!DOCTYPE svg PUBLIC "-//W3C//DTD SVG 20010904//EN"
 "http://www.w3.org/TR/2001/REC-SVG-20010904/DTD/svg10.dtd">
<svg version="1.0" xmlns="http://www.w3.org/2000/svg"
 width="937.000000pt" height="1280.000000pt" viewBox="0 0 937.000000 1280.000000"
 preserveAspectRatio="xMidYMid meet">
<metadata>
Created by potrace 1.15, written by Peter Selinger 2001-2017
</metadata>
<g transform="translate(0.000000,1280.000000) scale(0.100000,-0.100000)"
fill="#000000" stroke="none">
<path d="M4790 12124 c-132 -35 -245 -113 -308 -211 -54 -84 -74 -163 -80
-312 -5 -123 -7 -135 -28 -157 -36 -35 -31 -125 11 -228 7 -16 5 -17 -12 -8
-22 12 -33 7 -33 -15 0 -7 -19 -37 -42 -66 -44 -53 -62 -85 -98 -171 l-20 -48
-34 26 c-19 14 -37 23 -39 19 -2 -5 -8 -41 -11 -82 -4 -41 -16 -96 -27 -123
-10 -27 -19 -51 -19 -53 0 -3 14 -5 30 -5 38 0 39 -13 5 -87 -1 -1 -34 9 -74
23 -101 35 -196 44 -301 28 -122 -19 -201 -40 -212 -55 -14 -21 -2 -119 21
-172 11 -26 42 -71 69 -100 59 -63 186 -272 178 -293 -3 -8 -15 -108 -26 -222
-11 -114 -27 -243 -35 -287 -8 -44 -26 -169 -40 -278 -56 -437 -119 -643 -212
-690 -36 -19 -114 -34 -238 -47 -55 -6 -198 -22 -318 -36 -120 -14 -221 -24
-223 -21 -3 3 -6 21 -7 41 -2 31 -6 38 -27 42 -14 3 -38 11 -54 20 -27 14 -30
13 -63 -13 -19 -16 -47 -36 -61 -45 -31 -19 -112 -32 -128 -21 -6 4 -23 45
-39 91 -32 93 -62 127 -122 138 -26 5 -45 2 -66 -9 -27 -16 -31 -16 -68 4 -22
11 -68 39 -102 62 -109 75 -150 83 -163 32 -8 -32 33 -88 85 -116 50 -27 101
-80 101 -105 0 -53 -148 -65 -394 -30 -180 25 -207 24 -219 -8 -12 -29 20 -47
133 -76 63 -15 143 -34 178 -41 48 -9 62 -15 60 -28 -4 -20 -40 -26 -248 -41
-189 -14 -210 -19 -210 -54 0 -47 14 -49 250 -44 180 5 220 3 220 -8 0 -7 -19
-18 -42 -24 -110 -26 -248 -64 -293 -79 -52 -17 -67 -39 -45 -66 17 -21 44
-19 220 15 164 32 210 36 210 20 0 -14 -58 -57 -152 -115 -68 -42 -83 -55 -83
-75 0 -44 37 -35 191 44 107 56 157 76 185 76 21 0 41 -5 44 -10 15 -24 92
-53 149 -56 41 -2 63 -8 69 -19 15 -28 47 25 47 78 0 122 124 96 194 -40 l16
-32 39 14 c76 26 111 64 111 117 0 20 2 20 158 12 364 -20 757 -8 905 28 95
24 145 94 236 335 27 70 78 206 115 301 36 96 71 194 77 218 6 24 14 44 18 44
4 0 18 -33 30 -72 13 -40 51 -134 84 -208 33 -74 69 -173 80 -219 21 -83 21
-84 2 -205 -10 -66 -20 -141 -23 -165 -3 -31 -32 -98 -90 -210 -129 -250 -140
-274 -161 -353 -11 -40 -32 -111 -46 -158 -36 -120 -81 -316 -102 -450 -27
-170 -25 -501 5 -716 18 -133 110 -623 128 -686 4 -15 -8 -11 -67 17 -91 43
-145 52 -205 32 -38 -12 -50 -13 -72 -1 -50 24 -129 -5 -356 -134 -120 -68
-169 -76 -270 -43 -100 32 -96 35 -96 -70 0 -49 5 -111 11 -135 11 -44 13 -46
43 -40 58 12 402 19 391 8 -5 -5 -59 -45 -120 -88 -60 -43 -155 -114 -209
-158 l-99 -79 7 -186 c7 -205 16 -279 37 -292 19 -12 136 -11 144 1 4 7 12 7
25 0 25 -13 99 -13 138 1 33 11 62 59 62 101 0 37 29 128 57 175 19 33 44 53
121 97 144 82 269 138 320 142 26 3 50 12 57 21 6 8 42 21 81 29 116 22 110
25 123 -63 18 -122 25 -386 13 -498 -6 -55 -23 -150 -37 -211 -50 -224 -60
-314 -60 -569 0 -268 -6 -226 106 -795 104 -532 102 -522 102 -745 0 -272 -5
-320 -48 -545 -32 -168 -38 -216 -39 -345 -1 -176 18 -421 36 -442 30 -37 92
-57 188 -61 125 -5 163 8 208 71 81 113 101 281 64 547 -11 80 -23 183 -26
230 -4 47 -11 132 -17 189 -6 57 -12 159 -13 225 -2 67 -6 211 -10 321 -10
235 7 486 54 817 50 348 55 428 40 638 -18 263 -15 362 15 520 33 171 44 323
45 574 l0 199 168 -7 c242 -10 520 -33 732 -62 250 -33 321 -46 565 -107 202
-50 215 -52 351 -52 l141 0 77 39 c175 89 233 216 188 407 -34 143 -87 266
-230 539 -44 85 -104 206 -132 269 -78 172 -414 841 -529 1051 -55 101 -113
218 -128 260 -59 166 -107 280 -163 385 -90 170 -163 351 -166 410 -3 70 -29
214 -40 225 -11 11 1 173 15 197 5 10 20 -20 45 -89 40 -109 109 -254 131
-276 21 -23 131 -40 300 -47 176 -8 357 3 639 38 l175 22 -5 -20 c-7 -29 40
-71 107 -95 29 -11 58 -20 64 -20 6 0 20 22 33 50 57 124 192 137 247 23 11
-23 25 -41 30 -39 6 2 17 0 26 -5 23 -12 92 24 119 61 20 28 65 41 82 24 7 -6
-83 -196 -297 -627 -101 -205 -135 -281 -127 -289 9 -9 18 4 37 48 14 32 114
240 223 462 l197 403 73 -4 c55 -3 77 0 88 10 24 25 17 53 -17 65 l-31 11 31
13 c17 7 34 20 37 29 10 25 -4 61 -28 73 -21 10 -19 10 10 5 23 -4 38 -1 52
12 37 34 16 95 -33 95 -21 1 -21 1 -4 14 10 8 39 17 65 21 55 8 90 25 155 73
l47 36 -37 20 c-24 13 -59 20 -95 20 l-57 1 20 30 c11 17 44 81 74 142 29 62
62 125 73 140 10 16 17 34 14 42 -2 8 0 11 5 8 6 -4 23 8 39 26 l29 32 -32
-29 c-18 -17 -33 -27 -33 -24 0 4 46 93 55 106 7 9 118 -36 126 -50 5 -10 18
-18 28 -18 10 0 52 -17 92 -37 46 -23 87 -37 109 -36 66 2 120 8 120 13 0 3
-16 22 -36 43 -27 27 -32 37 -19 37 24 0 155 43 155 52 0 10 -64 74 -93 93
-33 21 -132 26 -173 9 -16 -7 -50 -34 -74 -60 -39 -43 -42 -48 -24 -55 17 -6
17 -8 -8 -19 -19 -9 -34 -9 -55 -2 l-28 10 27 1 c34 1 50 28 50 89 0 43 -4 50
-47 89 l-47 41 65 119 c41 73 71 117 79 114 47 -14 57 -11 102 28 26 23 53 41
59 41 8 0 7 3 -2 9 -20 13 30 61 64 61 14 0 25 4 25 9 0 13 -29 41 -42 41 -6
0 -8 10 -4 24 4 17 1 26 -12 30 -31 12 -77 38 -98 58 -11 10 -34 22 -50 27
-16 5 -38 12 -48 17 -13 5 -17 4 -13 -4 9 -13 -32 -84 -44 -76 -5 3 -9 -10 -9
-28 -1 -40 -28 -107 -29 -71 -1 12 -13 35 -27 50 -15 15 -22 21 -16 13 6 -8
14 -43 17 -77 8 -66 35 -123 60 -123 8 0 15 -5 15 -10 0 -6 -27 -64 -59 -129
-46 -92 -65 -120 -84 -125 -47 -11 -75 -44 -83 -93 -4 -29 -3 -53 4 -64 11
-18 -27 -97 -227 -471 -36 -68 -61 -85 -116 -79 -39 4 -106 43 -103 60 6 29
37 24 73 -12 l35 -35 45 30 c75 49 75 111 1 169 -39 31 -148 39 -177 13 -14
-12 -19 -27 -17 -46 4 -26 4 -26 -35 13 -22 21 -49 40 -61 41 -109 8 -116 4
-66 -39 22 -19 47 -48 55 -64 14 -27 14 -29 -7 -43 -29 -19 -178 -76 -178 -68
0 3 8 14 17 24 18 20 22 64 9 111 -9 36 -28 30 -40 -11 -7 -25 -13 -31 -28
-27 -12 4 -18 1 -18 -9 0 -8 -19 -49 -41 -91 -47 -86 -68 -100 -137 -90 -41 6
-64 22 -87 58 -5 9 -19 17 -30 19 -15 2 -20 -2 -19 -19 1 -27 0 -27 -31 -7
-21 14 -30 14 -55 4 -23 -10 -28 -16 -20 -26 8 -9 7 -21 -5 -44 l-16 -31 -67
5 c-37 3 -155 10 -262 16 -438 23 -455 28 -486 140 -8 30 -33 108 -55 172 -21
64 -46 150 -55 190 -34 163 -84 542 -90 689 l-7 154 31 18 c69 40 92 66 92
108 0 21 2 39 4 39 2 0 24 -11 48 -25 l45 -25 15 22 c8 13 32 60 53 106 39 84
39 91 2 105 -5 1 7 25 25 53 40 60 66 153 52 191 -8 24 -20 29 -99 48 -157 38
-239 55 -291 61 l-51 6 -7 97 c-3 53 -6 123 -6 156 0 76 -9 92 -41 75 -13 -7
-32 -19 -42 -28 -24 -21 -31 -9 -18 29 18 51 13 76 -20 113 -21 25 -53 44
-105 63 l-74 28 0 53 c0 49 5 58 33 53 13 -2 29 53 23 84 -3 16 -8 85 -11 152
-12 266 -48 385 -144 481 -56 56 -161 114 -247 136 -76 20 -201 20 -274 0z
m-312 -1048 c-12 -15 -10 -64 3 -71 5 -4 14 -18 19 -31 5 -13 20 -28 33 -33
32 -12 37 -29 37 -109 l-1 -67 -16 30 c-8 17 -35 54 -59 84 -37 45 -44 60 -44
98 0 24 -6 56 -14 71 -7 15 -16 47 -20 70 l-7 44 38 -39 c21 -21 35 -42 31
-47z m3168 -2382 c17 -14 17 -15 1 -10 -10 3 -25 6 -33 6 -8 0 -14 5 -14 10 0
15 24 12 46 -6z m-2572 -2071 c83 -90 151 -175 214 -267 56 -81 291 -377 388
-488 58 -65 187 -182 305 -274 32 -26 59 -48 59 -48 0 -1 -44 13 -97 30 -113
38 -275 64 -392 64 -118 0 -348 -26 -569 -64 l-192 -33 0 58 c0 31 14 194 31
361 26 243 32 344 31 510 l-1 207 67 4 c37 2 73 4 81 5 7 1 41 -28 75 -65z"/>
<path d="M4089 965 c-1 -5 -1 -13 0 -17 0 -5 -3 -8 -9 -8 -5 0 -10 4 -10 10 0
5 -7 7 -16 3 -8 -3 -13 -12 -10 -19 3 -8 0 -14 -7 -15 -7 0 3 -7 21 -15 30
-13 47 -32 19 -21 -7 3 -13 -3 -13 -14 0 -13 3 -15 13 -7 7 6 13 7 13 2 0 -5
5 -2 10 6 8 12 10 10 10 -9 l0 -24 27 24 c15 13 21 16 14 6 -12 -15 -12 -17 3
-11 11 4 16 19 16 51 0 40 -2 45 -20 40 -11 -3 -18 -2 -15 3 3 4 -2 10 -10 14
-8 3 -15 0 -15 -7 0 -8 -4 -6 -10 3 -5 8 -10 11 -11 5z"/>
</g>
</svg>
