<?xml version="1.0" standalone="no"?>
<!DOCTYPE svg PUBLIC "-//W3C//DTD SVG 20010904//EN"
 "http://www.w3.org/TR/2001/REC-SVG-20010904/DTD/svg10.dtd">
<svg version="1.0" xmlns="http://www.w3.org/2000/svg"
 width="1010.000000pt" height="1280.000000pt" viewBox="0 0 1010.000000 1280.000000"
 preserveAspectRatio="xMidYMid meet">
<metadata>
Created by potrace 1.15, written by Peter Selinger 2001-2017
</metadata>
<g transform="translate(0.000000,1280.000000) scale(0.100000,-0.100000)"
fill="#000000" stroke="none">
<path d="M6199 12290 c-14 -4 -37 -14 -50 -23 -13 -8 -38 -18 -55 -22 -36 -7
-69 -39 -77 -75 -3 -14 -11 -44 -18 -67 -9 -30 -10 -51 -3 -70 9 -25 14 -28
52 -25 36 2 49 -3 82 -30 37 -31 38 -33 17 -39 -18 -5 -16 -7 16 -14 32 -6 44
-4 69 15 16 12 31 20 32 18 1 -1 107 -141 234 -310 128 -169 232 -310 232
-313 0 -4 -12 1 -27 9 -16 9 -52 20 -81 25 -78 13 -92 -2 -94 -99 -1 -63 3
-82 23 -115 l24 -40 -35 23 c-75 50 -119 64 -175 57 -43 -5 -61 -13 -90 -42
-32 -31 -90 -131 -81 -140 1 -2 25 -5 52 -8 27 -3 72 -10 101 -15 40 -7 65 -5
104 6 50 15 52 15 75 -7 13 -12 24 -26 24 -31 0 -5 -16 -22 -35 -39 -19 -17
-35 -39 -35 -49 0 -31 15 -30 29 1 7 16 26 36 43 45 29 15 31 15 60 -13 16
-15 47 -54 68 -87 36 -55 38 -60 24 -81 -11 -17 -12 -24 -3 -27 9 -3 9 -9 0
-27 -19 -35 -8 -47 64 -66 37 -10 78 -27 91 -37 62 -50 -13 -178 -105 -178
-35 0 -59 -28 -67 -82 -5 -25 -1 -38 14 -51 29 -26 84 -32 123 -13 18 9 34 15
36 13 8 -9 -228 -599 -288 -719 -82 -164 -149 -204 -478 -284 -252 -61 -414
-92 -490 -95 l-65 -3 -11 35 c-11 32 -15 34 -71 41 -32 3 -81 11 -109 17 -27
5 -78 10 -112 10 -59 1 -63 2 -63 25 0 13 7 30 16 37 13 11 15 25 10 74 -21
200 -33 237 -84 256 -15 6 -74 20 -131 32 -88 19 -105 25 -107 42 -2 11 -15
30 -30 43 l-26 23 31 40 c59 73 64 95 58 284 -5 189 -21 263 -77 359 -37 65
-133 157 -199 191 -150 76 -316 92 -444 42 -137 -53 -227 -141 -279 -272 -34
-86 -32 -60 -32 -405 0 -58 0 -123 0 -145 -1 -22 2 -53 5 -70 6 -27 3 -33 -39
-60 -34 -22 -56 -48 -84 -100 -21 -38 -39 -74 -41 -78 -1 -5 -20 8 -41 27 -20
20 -41 34 -46 31 -4 -3 -11 -30 -15 -61 -4 -31 -17 -85 -31 -119 l-23 -64 22
-3 c19 -3 22 -8 19 -38 -6 -69 -7 -70 -60 -55 -136 39 -297 53 -416 37 -70
-10 -91 -46 -90 -154 l0 -78 -56 0 c-110 0 -549 66 -700 105 -96 25 -193 80
-247 139 -62 69 -145 182 -215 294 l-59 93 30 61 c17 34 31 69 31 80 0 10 6
18 14 18 18 0 27 39 18 75 -7 25 -15 30 -62 41 -31 7 -59 20 -65 29 -32 54
-48 66 -81 63 -18 -1 -38 2 -43 7 -5 6 -19 44 -31 85 -55 188 -52 181 -92 207
-30 20 -46 24 -75 20 -32 -6 -42 -2 -68 22 -39 37 -75 50 -69 24 3 -11 -6 -29
-23 -45 l-28 -27 -95 20 c-52 11 -123 33 -157 49 -80 39 -143 48 -166 25 -33
-33 -20 -63 46 -104 21 -13 40 -36 50 -61 l15 -40 -36 -9 c-91 -24 -125 -23
-207 3 -95 31 -121 32 -134 8 -12 -22 -4 -35 34 -55 l30 -15 -30 -7 c-63 -13
-95 -33 -95 -59 0 -14 3 -27 8 -29 4 -3 62 0 130 6 l123 11 97 -33 c53 -17
117 -43 142 -56 25 -14 57 -30 72 -37 24 -10 28 -19 28 -51 0 -50 11 -69 77
-134 69 -67 91 -68 150 -11 24 23 43 36 43 29 0 -24 -32 -82 -51 -92 -23 -12
-24 -37 -3 -68 25 -35 119 -91 153 -91 27 0 31 -4 41 -42 47 -186 181 -488
243 -550 38 -38 156 -86 287 -119 47 -11 211 -56 365 -100 154 -44 348 -93
430 -110 200 -40 257 -55 333 -90 175 -79 277 -213 367 -482 20 -60 41 -136
46 -168 11 -70 98 -294 192 -494 92 -196 110 -266 97 -371 -6 -46 -11 -104
-11 -131 -1 -26 -8 -70 -17 -98 -29 -97 -171 -359 -262 -484 -73 -100 -137
-214 -161 -284 -16 -49 -20 -80 -17 -152 5 -130 31 -180 172 -322 93 -93 124
-118 187 -148 101 -48 187 -65 361 -72 l148 -6 54 -106 c77 -151 137 -302 221
-556 40 -121 113 -321 163 -445 150 -376 198 -553 190 -706 -5 -102 -22 -131
-160 -282 -165 -182 -233 -285 -291 -447 -30 -86 -48 -151 -136 -517 -119
-487 -195 -689 -301 -799 -57 -59 -110 -159 -117 -221 -3 -24 1 -63 8 -88 7
-25 14 -67 14 -95 2 -54 27 -110 143 -318 33 -60 64 -126 67 -148 4 -24 0 -70
-11 -119 -10 -50 -14 -84 -8 -90 5 -5 41 -12 79 -16 l70 -6 44 38 43 39 -20
95 c-11 52 -23 127 -27 165 -6 66 -5 69 10 50 9 -11 59 -92 112 -180 100 -168
125 -202 158 -215 11 -4 88 -2 172 6 118 10 162 18 200 36 l48 23 -2 110 c-2
119 -18 178 -56 212 -12 11 -56 32 -97 47 -41 14 -103 45 -138 69 -51 34 -71
56 -108 118 -55 94 -96 193 -88 213 3 9 -4 35 -16 58 -19 36 -21 53 -16 101
15 148 89 306 403 872 110 198 230 419 268 490 90 171 131 236 226 352 98 120
133 186 160 299 17 69 20 107 16 169 -26 358 -38 507 -42 550 -3 28 -12 169
-20 315 -26 441 -59 716 -146 1198 -6 35 -9 65 -7 68 12 12 292 108 377 130
205 52 278 50 343 -13 16 -15 68 -97 116 -181 48 -84 121 -199 163 -255 97
-129 247 -279 364 -362 110 -79 448 -280 780 -465 209 -116 293 -175 387 -271
74 -76 89 -98 103 -146 19 -65 96 -224 129 -268 13 -16 41 -41 63 -54 21 -14
46 -39 54 -55 30 -60 132 -109 352 -172 167 -48 209 -79 277 -209 20 -36 42
-65 50 -65 32 0 218 219 205 240 -4 6 -40 33 -80 60 -75 51 -162 126 -154 134
2 3 47 -2 99 -10 121 -18 164 -18 204 1 40 19 200 145 224 176 42 54 142 221
142 237 0 25 -93 122 -117 122 -14 0 -22 8 -26 28 -3 15 -27 48 -52 75 -35 35
-53 47 -76 47 -39 0 -105 -34 -151 -77 -57 -55 -94 -57 -262 -16 -147 36 -297
91 -355 130 -19 13 -41 23 -51 23 -18 0 -289 180 -415 277 -220 167 -536 452
-846 762 -179 179 -353 360 -386 401 -33 41 -118 161 -189 265 -262 387 -355
434 -807 407 -106 -7 -273 -23 -372 -37 -99 -13 -196 -25 -216 -25 l-36 0 -27
101 c-15 55 -33 131 -40 168 -12 60 -11 69 2 78 14 8 14 20 3 99 -7 49 -19
102 -27 118 -18 38 -18 138 1 229 8 40 47 167 85 282 109 325 102 290 97 470
-3 95 -10 178 -18 205 -8 25 -13 65 -11 89 3 40 10 51 75 116 108 107 250 175
489 235 177 45 311 90 588 197 361 139 370 143 427 175 86 49 106 80 163 255
71 218 102 344 151 623 24 132 47 240 52 240 4 0 20 -13 34 -30 31 -37 49 -38
85 -3 31 30 35 49 14 72 -8 9 -29 45 -47 81 -38 75 -49 153 -27 194 l14 27
178 -265 c98 -146 182 -266 187 -266 19 0 7 28 -32 81 -23 30 -101 146 -175
258 -104 156 -133 208 -128 225 3 11 33 49 66 82 57 58 59 62 41 75 -11 8 -30
34 -44 59 -15 28 -36 51 -56 60 -33 15 -38 32 -34 110 1 14 -7 38 -18 52 -12
14 -21 35 -21 45 0 30 -42 63 -81 63 -25 0 -53 14 -109 55 -41 30 -80 55 -87
55 -6 0 -25 -12 -42 -26 l-31 -26 -29 61 c-15 33 -50 86 -77 118 -68 79 -109
137 -106 146 1 4 -2 6 -7 5 -15 -4 -340 437 -330 446 2 2 15 9 27 15 23 12 58
78 48 88 -3 3 -10 -6 -15 -20 -16 -42 -26 -38 -22 10 3 37 -4 59 -35 119 -46
90 -60 104 -95 94z m606 -1070 c19 -38 15 -55 -28 -100 -40 -42 -49 -64 -34
-79 15 -15 50 -14 67 2 8 6 -2 -8 -21 -32 -49 -62 -63 -69 -88 -47 -27 25 -26
34 4 46 27 10 32 29 13 48 -8 8 -8 15 2 27 7 8 9 15 4 15 -4 0 2 10 14 23 25
27 45 74 43 105 -1 30 5 28 24 -8z m-105 -135 c-6 -7 -24 -18 -40 -25 -24 -10
-33 -9 -50 3 -14 9 -17 17 -11 22 6 3 9 9 7 13 -2 4 20 5 50 4 44 -3 53 -7 44
-17z m-5680 -775 c8 -5 11 -10 5 -10 -5 0 -17 5 -25 10 -8 5 -10 10 -5 10 6 0
17 -5 25 -10z m3720 -847 c0 -25 0 -26 -20 -8 -11 10 -20 21 -20 24 0 4 9 7
20 8 15 1 20 -4 20 -24z"/>
<path d="M6658 11083 c6 -2 18 -2 25 0 6 3 1 5 -13 5 -14 0 -19 -2 -12 -5z"/>
<path d="M6716 12173 c-13 -27 -29 -81 -36 -120 -7 -40 -15 -73 -16 -73 -2 0
-20 11 -40 25 -58 40 -118 37 -156 -6 -42 -49 -42 -95 -2 -187 17 -37 84 -76
115 -67 13 4 19 2 19 -9 0 -9 6 -13 15 -10 11 5 13 -1 8 -30 -4 -29 -2 -36 11
-36 17 0 40 48 58 120 6 25 20 55 31 67 16 19 18 25 7 38 -15 18 -30 20 -30 2
0 -15 -71 -137 -80 -137 -12 0 -9 53 5 78 8 15 14 21 15 13 0 -23 41 36 61 90
11 28 22 90 25 142 4 51 12 104 19 120 23 48 -4 29 -29 -20z"/>
<path d="M6379 12113 c-13 -15 -12 -15 6 -6 11 6 27 13 35 16 10 4 8 6 -6 6
-12 1 -28 -6 -35 -16z"/>
<path d="M6070 11935 c-11 -13 -8 -13 19 -4 35 12 40 19 12 19 -10 0 -24 -7
-31 -15z"/>
<path d="M6592 11690 c0 -14 2 -19 5 -12 2 6 2 18 0 25 -3 6 -5 1 -5 -13z"/>
</g>
</svg>
