<?xml version="1.0" standalone="no"?>
<!DOCTYPE svg PUBLIC "-//W3C//DTD SVG 20010904//EN"
 "http://www.w3.org/TR/2001/REC-SVG-20010904/DTD/svg10.dtd">
<svg version="1.0" xmlns="http://www.w3.org/2000/svg"
 width="615.000000pt" height="1280.000000pt" viewBox="0 0 615.000000 1280.000000"
 preserveAspectRatio="xMidYMid meet">
<metadata>
Created by potrace 1.15, written by Peter Selinger 2001-2017
</metadata>
<g transform="translate(0.000000,1280.000000) scale(0.100000,-0.100000)"
fill="#000000" stroke="none">
<path d="M3650 12264 c-36 -7 -102 -32 -148 -55 -152 -75 -237 -187 -273 -364
-20 -98 -26 -299 -9 -310 6 -3 10 -39 10 -79 0 -39 4 -76 9 -81 5 -6 11 -64
13 -130 l5 -120 -41 -30 c-23 -17 -56 -52 -73 -79 -29 -42 -33 -57 -33 -110 1
-34 7 -72 15 -86 8 -14 14 -28 15 -32 0 -4 -37 13 -82 37 -46 25 -90 45 -99
45 -13 0 -17 -15 -22 -67 -9 -89 1 -144 25 -151 10 -2 18 -9 18 -15 0 -6 7
-19 16 -28 14 -16 15 -25 5 -65 -12 -45 -6 -129 9 -149 4 -5 3 -34 -3 -64 -11
-50 -17 -59 -97 -130 -47 -42 -96 -83 -108 -91 -18 -11 -25 -28 -29 -60 -4
-39 3 -62 57 -180 33 -74 65 -139 69 -143 5 -5 -7 -36 -27 -69 l-35 -59 -30
51 c-16 28 -35 54 -42 56 -19 8 -94 -35 -113 -64 -15 -23 -15 -25 3 -38 18
-13 18 -14 -1 -35 -18 -20 -18 -21 5 -38 21 -16 22 -20 11 -60 -9 -35 -9 -46
2 -59 22 -27 39 -89 32 -116 -4 -17 0 -35 12 -54 12 -18 17 -44 16 -79 -1 -34
4 -55 12 -60 18 -11 46 -67 46 -93 0 -45 16 -59 62 -53 24 3 47 9 52 14 9 8
-3 94 -21 164 -4 14 -2 17 5 10 17 -15 42 -178 42 -267 l0 -78 -25 6 c-17 4
-32 1 -43 -9 -23 -21 -118 -63 -159 -72 -27 -5 -33 -3 -33 10 0 29 -48 111
-84 143 -46 40 -91 52 -196 52 -67 0 -92 -4 -117 -20 -36 -21 -41 -41 -18 -60
11 -9 12 -16 2 -30 -9 -16 -22 -19 -83 -17 l-71 2 -7 65 c-12 128 -9 146 23
160 17 6 34 9 40 6 19 -12 62 14 73 44 7 22 18 33 39 37 37 7 38 23 2 23 -31
0 -63 43 -63 85 0 12 -7 28 -15 35 -8 6 -17 22 -21 33 -21 71 -88 110 -147 88
-17 -7 -27 -7 -27 -1 0 6 -4 10 -10 10 -5 0 -10 -10 -10 -23 0 -12 -13 -38
-30 -57 -16 -19 -29 -41 -30 -47 0 -7 -4 -13 -8 -13 -5 0 -23 -29 -40 -64 -45
-90 -45 -152 1 -195 17 -17 41 -37 52 -45 35 -25 11 -26 -31 -1 -34 20 -45 36
-68 95 -17 43 -43 86 -64 107 -34 34 -37 35 -92 30 -31 -2 -65 -10 -76 -15
-10 -6 -37 -18 -59 -27 -58 -24 -68 -30 -73 -44 -2 -6 27 -43 65 -80 57 -57
77 -70 114 -76 64 -12 79 -11 143 9 l57 18 45 -23 c24 -13 44 -27 44 -30 0 -3
-34 -9 -75 -12 -61 -4 -87 -12 -139 -41 -78 -44 -85 -52 -95 -115 -11 -72 -4
-78 60 -45 48 24 109 42 204 61 40 8 45 17 45 86 0 33 4 57 10 57 26 0 93 -44
110 -73 29 -46 25 -66 -13 -82 -48 -20 -62 -41 -59 -92 1 -25 -2 -51 -6 -57
-4 -6 -7 -71 -8 -144 l-1 -133 77 -50 77 -49 7 -93 c3 -50 9 -157 12 -237 6
-158 9 -179 24 -164 7 7 6 87 -1 234 -9 168 -9 227 0 241 15 26 14 54 -4 69
-14 12 -21 40 -10 40 3 0 31 -13 62 -30 31 -16 62 -30 69 -30 16 0 27 32 18
54 -4 11 -1 16 11 16 13 0 16 -5 11 -22 -15 -49 -18 -105 -7 -113 7 -4 29 8
51 27 97 83 97 83 135 62 48 -25 59 -12 41 50 -14 47 -14 47 10 57 34 12 32
14 39 -28 11 -70 14 -78 36 -101 11 -13 27 -21 34 -18 8 3 15 -7 19 -26 l6
-30 34 26 c19 14 39 26 45 26 6 0 8 6 5 14 -9 23 27 29 43 6 8 -11 19 -18 24
-15 5 4 9 -5 9 -19 0 -14 7 -29 16 -34 14 -8 14 -18 4 -85 -25 -167 -28 -259
-19 -736 19 -1110 34 -1248 214 -2021 40 -173 83 -364 95 -425 12 -60 33 -157
46 -215 14 -58 32 -170 40 -249 8 -79 26 -185 40 -235 115 -428 111 -400 135
-1161 11 -359 0 -929 -21 -1075 -21 -144 -61 -345 -74 -370 -7 -14 -16 -47
-20 -73 -8 -67 -77 -237 -132 -331 -52 -87 -133 -162 -242 -223 -91 -51 -102
-65 -104 -137 l-1 -61 -7 50 c-5 38 -7 42 -8 18 -2 -33 -16 -44 -26 -20 -3 6
-4 1 -3 -12 1 -14 -4 -26 -13 -28 -13 -4 -13 -3 0 6 11 8 11 11 2 11 -7 0 -15
-7 -18 -15 -4 -8 -10 -12 -15 -9 -5 3 -9 -1 -9 -8 0 -7 -15 -29 -33 -49 -17
-20 -33 -42 -35 -49 -6 -25 19 -65 53 -87 36 -24 139 -65 167 -66 9 -1 14 -5
12 -9 -3 -5 2 -11 10 -14 9 -3 16 -13 16 -21 0 -60 311 -63 366 -2 13 15 14
19 3 20 -8 0 15 10 51 22 62 21 67 26 114 94 l49 72 41 -26 c56 -36 142 -73
169 -73 23 0 97 26 132 47 18 10 19 15 7 55 -42 149 -44 159 -32 205 6 25 28
80 50 122 l38 78 84 -41 c77 -38 88 -40 156 -38 70 3 76 1 145 -40 119 -72
208 -111 266 -116 40 -3 57 -1 65 10 6 7 26 20 44 27 39 16 39 26 7 121 -35
103 -33 150 14 268 68 171 73 196 67 345 -5 122 -8 140 -41 220 -40 102 -62
146 -81 168 -20 22 -44 196 -44 318 0 58 9 195 20 305 81 818 84 892 50 1090
-24 142 -85 331 -157 491 -121 265 -155 364 -189 550 -27 145 -25 571 4 1030
12 193 27 425 32 516 11 190 27 259 99 446 104 269 105 451 6 647 -56 110 -92
158 -248 335 -66 75 -144 168 -173 206 l-53 70 50 11 c27 7 56 17 63 23 29 24
88 163 121 286 19 72 54 195 76 275 67 233 96 357 114 490 20 153 79 493 106
613 16 72 25 93 48 113 16 13 46 51 67 84 22 33 42 60 45 60 3 0 14 -9 24 -20
18 -20 19 -19 59 52 22 40 39 78 38 85 -1 6 20 16 49 22 69 15 86 26 108 69
36 74 35 86 -16 190 -61 123 -114 174 -217 212 -19 7 -26 15 -22 26 3 9 6 24
6 34 0 12 8 20 23 22 17 2 23 11 25 36 5 46 -52 232 -95 315 -34 64 -115 167
-132 167 -4 0 -13 -18 -20 -40 l-12 -40 -26 25 c-24 22 -46 33 -93 48 -19 6
-42 74 -29 83 5 3 9 17 9 32 0 15 7 49 15 76 19 62 19 116 0 158 -8 19 -18 92
-24 168 -19 274 -104 421 -297 516 -124 62 -250 77 -384 48z m604 -1263 c18
-15 23 -125 7 -150 -14 -22 -24 6 -22 59 1 34 -4 54 -19 73 -11 14 -20 27 -20
29 0 10 39 1 54 -11z m-2190 -2033 c3 -24 7 -69 9 -100 l4 -58 -33 39 c-18 21
-47 44 -64 51 -16 7 -30 16 -30 20 0 10 91 90 102 90 4 0 9 -19 12 -42z m51
-649 c11 -17 2 -18 -19 -3 -17 12 -17 14 -4 14 9 0 20 -5 23 -11z m1988 -5266
c4 -32 20 -173 37 -313 16 -140 35 -347 41 -459 10 -180 9 -247 -5 -416 -4
-60 -33 -149 -78 -247 -34 -73 -45 -88 -64 -88 -12 0 -29 -3 -38 -6 -13 -5
-16 1 -16 31 0 39 -68 197 -112 257 -21 30 -22 43 -23 173 0 139 0 141 62 385
91 356 173 704 173 729 0 44 17 10 23 -46z m327 -1935 c0 -7 -3 -23 -6 -34
l-6 -22 -21 22 c-22 21 -22 21 -2 33 26 16 35 16 35 1z"/>
</g>
</svg>
